Coordinates
version=1
nRows=6
nColumns=36
inDegrees=yes

Units are S.I. units (second, meters, Newtons, ...)
If the header above contains a line with 'inDegrees', this indicates whether rotational values are in degrees (yes) or radians (no).

endheader
time	pelvis_tilt	pelvis_list	pelvis_rotation	pelvis_tx	pelvis_ty	pelvis_tz	hip_flexion_r	hip_adduction_r	hip_rotation_r	knee_angle_r	knee_angle_r_beta	ankle_angle_r	subtalar_angle_r	mtp_angle_r	hip_flexion_l	hip_adduction_l	hip_rotation_l	knee_angle_l	knee_angle_l_beta	ankle_angle_l	subtalar_angle_l	mtp_angle_l	lumbar_extension	lumbar_bending	lumbar_rotation	arm_flex_r	arm_add_r	arm_rot_r	elbow_flex_r	pro_sup_r	arm_flex_l	arm_add_l	arm_rot_l	elbow_flex_l	pro_sup_l
      3.88333330	    -27.33457787	     -1.11521723	      2.12883473	      0.65205621	      0.82412557	      0.40649200	     61.24255681	     -9.40167301	     -5.12016734	     49.53958378	      0.86462885	     16.27449578	     -8.47625811	     -7.49999987	     59.81995113	    -14.32054614	     -8.03963823	     47.69244257	      0.83239015	     13.49463900	     -9.41837450	     -7.49999987	     -3.40226277	     -2.64275067	      4.45908966	     69.74176601	    -28.80603147	     10.53714986	    139.20833570	     90.09781060	     67.08834533	    -28.81209459	     11.62367416	    134.06430196	     83.71980356
      3.90000000	    -25.67268604	     -0.78694763	      1.89007444	      0.65877256	      0.83883347	      0.40929342	     56.78491269	     -9.29170305	     -5.96604528	     45.20200408	      0.78892380	     14.82652868	     -8.04806488	     -7.49999987	     55.04228281	    -13.87326689	     -9.23332017	     43.16488587	      0.75336938	     11.67215904	     -9.27164716	     -7.49999987	     -3.25115700	     -2.52560570	      3.28748198	     69.04179265	    -26.61698521	     12.21082041	    137.45284731	     91.41762198	     64.06227162	    -30.76389397	      8.35427228	    134.70039627	     83.95377444
      3.91666670	    -24.70360615	     -0.49189856	      1.63205644	      0.66416094	      0.84903072	      0.40604054	     53.19863571	     -9.21432247	     -6.72876832	     41.05825621	      0.71660176	     13.30599717	     -7.37618273	     -7.49999987	     51.18103359	    -13.44134110	    -10.48700733	     38.89207592	      0.67879478	     10.09021667	     -8.58921844	     -7.49999987	     -2.17034622	     -2.67806509	      3.50895538	     67.82257543	    -26.85609450	     12.72045885	    137.06627118	     91.66305492	     62.81667545	    -30.80771855	      7.76964002	    134.51083981	     83.90602598
      3.93333330	    -23.79894669	     -0.27443892	      1.49375597	      0.66584645	      0.86003070	      0.40591097	     50.03819773	     -9.12780138	     -7.42841616	     37.49222150	      0.65436271	     11.94034099	     -6.65513708	     -7.49999987	     47.92235072	    -12.98051239	    -11.60336008	     35.24997092	      0.61522805	      8.81798473	     -7.97283979	     -7.49999987	     -1.27178120	     -2.68580761	      3.67211878	     66.64519576	    -26.81293332	     13.17527489	    136.66676093	     91.91576773	     60.32673970	    -30.27620238	      6.97738918	    134.11750677	     84.01776530
      3.95000000	    -22.76268402	     -0.13791498	      1.36580901	      0.67693424	      0.87071928	      0.40469872	     46.53776852	     -8.97962582	     -8.28299157	     33.72046160	      0.58853308	     10.66352252	     -5.87117041	     -7.49999987	     44.25140627	    -12.49255236	    -12.79228689	     31.22004839	      0.54489264	      7.70036241	     -7.10391579	     -7.49999987	     -0.35087214	     -2.66747665	      4.02123054	     64.26421143	    -27.19156494	     13.70953126	    136.51604928	     92.06601283	     57.01202400	    -29.97650459	      6.50716569	    134.95647463	     84.18270928
      3.96666670	    -21.46202190	     -0.10119164	      1.25363173	      0.68745475	      0.88743720	      0.39898655	     42.34660556	     -8.82549626	     -9.45632240	     29.38231891	      0.51281821	      9.30182188	     -4.75785043	     -7.49999987	     39.83773246	    -11.89430686	    -14.00048566	     26.58860751	      0.46405874	      6.27394223	     -5.83861922	     -7.49999987	      0.10842791	     -2.37923036	      4.22772682	     60.54685036	    -28.01599312	     13.92015261	    137.31810680	     93.05148621	     52.39408274	    -29.68466136	      5.70473426	    136.67639333	     85.30327258
